<svg width="279" height="273" viewBox="0 0 279 273" fill="none" xmlns="http://www.w3.org/2000/svg">
<path d="M215.393 92.5716C209.057 81.5968 200.621 71.9775 190.567 64.263C180.513 56.5484 169.038 50.8896 156.797 47.6097C144.557 44.3298 131.79 43.493 119.226 45.1471C106.662 46.8012 94.5462 50.9138 83.5714 57.2501C72.5967 63.5864 62.9774 72.0223 55.2628 82.0761C47.5483 92.1299 41.8895 103.605 38.6096 115.846C35.3297 128.086 34.4929 140.853 36.147 153.417C37.8011 165.982 41.9137 178.097 48.25 189.072L131.821 140.822L215.393 92.5716Z" fill="white"/>
<path d="M63.5705 180.071C69.9068 191.046 78.3426 200.666 88.3964 208.38C98.4503 216.095 109.925 221.753 122.166 225.033C134.407 228.313 147.174 229.15 159.738 227.496C172.302 225.842 184.417 221.729 195.392 215.393C206.367 209.057 215.986 200.621 223.701 190.567C231.415 180.513 237.074 169.038 240.354 156.798C243.634 144.557 244.47 131.79 242.816 119.226C241.162 106.662 237.05 94.5462 230.713 83.5715L147.142 131.821L63.5705 180.071Z" fill="#999999"/>
</svg>
